<?xml version="1.0" ?>
<mxGraphModel dx="1422" dy="762" grid="1" gridSize="10" guides="1" tooltips="1" connect="1" arrows="1" fold="1" page="1" pageScale="1" pageWidth="850" pageHeight="1100" math="0" shadow="0">
	<root>
		<mxCell id="0"/>
		<mxCell id="1" parent="0"/>
		<mxCell parent="1" vertex="1" value="201904 sales reciepts.csv" id="id_201904 sales reciepts.csv" style="swimlane;fontStyle=1;align=center;verticalAlign=top;childLayout=stackLayout;horizontal=1;startSize=26;horizontalStack=0;resizeParent=1;resizeParentMax=0;resizeLast=0;collapsible=1;marginBottom=0;">
			<mxGeometry x="0" y="104" width="140" height="104" as="geometry"/>
		</mxCell>
		<mxCell id="id_201904 sales reciepts.csv-0" parent="id_201904 sales reciepts.csv" value="transaction_id" style="text;fillColor=none;align=left;verticalAlign=top;spacingLeft=4;spacingRight=4;overflow=hidden;rotatable=0;points=[[0,0.5],[1,0.5]];portConstraint=eastwest;strokeColor=#000000;" vertex="1">
			<mxGeometry y="26" width="140" height="26" as="geometry"/>
		</mxCell>
		<mxCell id="id_201904 sales reciepts.csv-1" parent="id_201904 sales reciepts.csv" value="transaction_date" style="text;fillColor=none;align=left;verticalAlign=top;spacingLeft=4;spacingRight=4;overflow=hidden;rotatable=0;points=[[0,0.5],[1,0.5]];portConstraint=eastwest;strokeColor=#000000;" vertex="1">
			<mxGeometry y="52" width="140" height="26" as="geometry"/>
		</mxCell>
		<mxCell id="id_201904 sales reciepts.csv-2" parent="id_201904 sales reciepts.csv" value="transaction_time" style="text;fillColor=none;align=left;verticalAlign=top;spacingLeft=4;spacingRight=4;overflow=hidden;rotatable=0;points=[[0,0.5],[1,0.5]];portConstraint=eastwest;strokeColor=#000000;" vertex="1">
			<mxGeometry y="78" width="140" height="26" as="geometry"/>
		</mxCell>
		<mxCell id="id_201904 sales reciepts.csv-3" parent="id_201904 sales reciepts.csv" value="sales_outlet_id" style="text;fillColor=none;align=left;verticalAlign=top;spacingLeft=4;spacingRight=4;overflow=hidden;rotatable=0;points=[[0,0.5],[1,0.5]];portConstraint=eastwest;strokeColor=#000000;" vertex="1">
			<mxGeometry y="104" width="140" height="26" as="geometry"/>
		</mxCell>
		<mxCell id="id_201904 sales reciepts.csv-4" parent="id_201904 sales reciepts.csv" value="staff_id" style="text;fillColor=none;align=left;verticalAlign=top;spacingLeft=4;spacingRight=4;overflow=hidden;rotatable=0;points=[[0,0.5],[1,0.5]];portConstraint=eastwest;strokeColor=#000000;" vertex="1">
			<mxGeometry y="130" width="140" height="26" as="geometry"/>
		</mxCell>
		<mxCell id="id_201904 sales reciepts.csv-5" parent="id_201904 sales reciepts.csv" value="customer_id" style="text;fillColor=none;align=left;verticalAlign=top;spacingLeft=4;spacingRight=4;overflow=hidden;rotatable=0;points=[[0,0.5],[1,0.5]];portConstraint=eastwest;strokeColor=#000000;" vertex="1">
			<mxGeometry y="156" width="140" height="26" as="geometry"/>
		</mxCell>
		<mxCell id="id_201904 sales reciepts.csv-6" parent="id_201904 sales reciepts.csv" value="instore_yn" style="text;fillColor=none;align=left;verticalAlign=top;spacingLeft=4;spacingRight=4;overflow=hidden;rotatable=0;points=[[0,0.5],[1,0.5]];portConstraint=eastwest;strokeColor=#000000;" vertex="1">
			<mxGeometry y="182" width="140" height="26" as="geometry"/>
		</mxCell>
		<mxCell id="id_201904 sales reciepts.csv-7" parent="id_201904 sales reciepts.csv" value="order" style="text;fillColor=none;align=left;verticalAlign=top;spacingLeft=4;spacingRight=4;overflow=hidden;rotatable=0;points=[[0,0.5],[1,0.5]];portConstraint=eastwest;strokeColor=#000000;" vertex="1">
			<mxGeometry y="208" width="140" height="26" as="geometry"/>
		</mxCell>
		<mxCell id="id_201904 sales reciepts.csv-8" parent="id_201904 sales reciepts.csv" value="line_item_id" style="text;fillColor=none;align=left;verticalAlign=top;spacingLeft=4;spacingRight=4;overflow=hidden;rotatable=0;points=[[0,0.5],[1,0.5]];portConstraint=eastwest;strokeColor=#000000;" vertex="1">
			<mxGeometry y="234" width="140" height="26" as="geometry"/>
		</mxCell>
		<mxCell id="id_201904 sales reciepts.csv-9" parent="id_201904 sales reciepts.csv" value="product_id" style="text;fillColor=none;align=left;verticalAlign=top;spacingLeft=4;spacingRight=4;overflow=hidden;rotatable=0;points=[[0,0.5],[1,0.5]];portConstraint=eastwest;strokeColor=#000000;" vertex="1">
			<mxGeometry y="260" width="140" height="26" as="geometry"/>
		</mxCell>
		<mxCell id="id_201904 sales reciepts.csv-10" parent="id_201904 sales reciepts.csv" value="quantity" style="text;fillColor=none;align=left;verticalAlign=top;spacingLeft=4;spacingRight=4;overflow=hidden;rotatable=0;points=[[0,0.5],[1,0.5]];portConstraint=eastwest;strokeColor=#000000;" vertex="1">
			<mxGeometry y="286" width="140" height="26" as="geometry"/>
		</mxCell>
		<mxCell id="id_201904 sales reciepts.csv-11" parent="id_201904 sales reciepts.csv" value="line_item_amount" style="text;fillColor=none;align=left;verticalAlign=top;spacingLeft=4;spacingRight=4;overflow=hidden;rotatable=0;points=[[0,0.5],[1,0.5]];portConstraint=eastwest;strokeColor=#000000;" vertex="1">
			<mxGeometry y="312" width="140" height="26" as="geometry"/>
		</mxCell>
		<mxCell id="id_201904 sales reciepts.csv-12" parent="id_201904 sales reciepts.csv" value="unit_price" style="text;fillColor=none;align=left;verticalAlign=top;spacingLeft=4;spacingRight=4;overflow=hidden;rotatable=0;points=[[0,0.5],[1,0.5]];portConstraint=eastwest;strokeColor=#000000;" vertex="1">
			<mxGeometry y="338" width="140" height="26" as="geometry"/>
		</mxCell>
		<mxCell id="id_201904 sales reciepts.csv-13" parent="id_201904 sales reciepts.csv" value="promo_item_yn" style="text;fillColor=none;align=left;verticalAlign=top;spacingLeft=4;spacingRight=4;overflow=hidden;rotatable=0;points=[[0,0.5],[1,0.5]];portConstraint=eastwest;strokeColor=#000000;" vertex="1">
			<mxGeometry y="364" width="140" height="26" as="geometry"/>
		</mxCell>
		<mxCell parent="1" vertex="1" value="customer.csv" id="id_customer.csv" style="swimlane;fontStyle=1;align=center;verticalAlign=top;childLayout=stackLayout;horizontal=1;startSize=26;horizontalStack=0;resizeParent=1;resizeParentMax=0;resizeLast=0;collapsible=1;marginBottom=0;">
			<mxGeometry x="140" y="104" width="140" height="104" as="geometry"/>
		</mxCell>
		<mxCell id="id_customer.csv-0" parent="id_customer.csv" value="customer_id" style="text;fillColor=none;align=left;verticalAlign=top;spacingLeft=4;spacingRight=4;overflow=hidden;rotatable=0;points=[[0,0.5],[1,0.5]];portConstraint=eastwest;strokeColor=#000000;" vertex="1">
			<mxGeometry y="26" width="140" height="26" as="geometry"/>
		</mxCell>
		<mxCell id="id_customer.csv-1" parent="id_customer.csv" value="home_store" style="text;fillColor=none;align=left;verticalAlign=top;spacingLeft=4;spacingRight=4;overflow=hidden;rotatable=0;points=[[0,0.5],[1,0.5]];portConstraint=eastwest;strokeColor=#000000;" vertex="1">
			<mxGeometry y="52" width="140" height="26" as="geometry"/>
		</mxCell>
		<mxCell id="id_customer.csv-2" parent="id_customer.csv" value="customer_first-name" style="text;fillColor=none;align=left;verticalAlign=top;spacingLeft=4;spacingRight=4;overflow=hidden;rotatable=0;points=[[0,0.5],[1,0.5]];portConstraint=eastwest;strokeColor=#000000;" vertex="1">
			<mxGeometry y="78" width="140" height="26" as="geometry"/>
		</mxCell>
		<mxCell id="id_customer.csv-3" parent="id_customer.csv" value="customer_email" style="text;fillColor=none;align=left;verticalAlign=top;spacingLeft=4;spacingRight=4;overflow=hidden;rotatable=0;points=[[0,0.5],[1,0.5]];portConstraint=eastwest;strokeColor=#000000;" vertex="1">
			<mxGeometry y="104" width="140" height="26" as="geometry"/>
		</mxCell>
		<mxCell id="id_customer.csv-4" parent="id_customer.csv" value="customer_since" style="text;fillColor=none;align=left;verticalAlign=top;spacingLeft=4;spacingRight=4;overflow=hidden;rotatable=0;points=[[0,0.5],[1,0.5]];portConstraint=eastwest;strokeColor=#000000;" vertex="1">
			<mxGeometry y="130" width="140" height="26" as="geometry"/>
		</mxCell>
		<mxCell id="id_customer.csv-5" parent="id_customer.csv" value="loyalty_card_number" style="text;fillColor=none;align=left;verticalAlign=top;spacingLeft=4;spacingRight=4;overflow=hidden;rotatable=0;points=[[0,0.5],[1,0.5]];portConstraint=eastwest;strokeColor=#000000;" vertex="1">
			<mxGeometry y="156" width="140" height="26" as="geometry"/>
		</mxCell>
		<mxCell id="id_customer.csv-6" parent="id_customer.csv" value="birthdate" style="text;fillColor=none;align=left;verticalAlign=top;spacingLeft=4;spacingRight=4;overflow=hidden;rotatable=0;points=[[0,0.5],[1,0.5]];portConstraint=eastwest;strokeColor=#000000;" vertex="1">
			<mxGeometry y="182" width="140" height="26" as="geometry"/>
		</mxCell>
		<mxCell id="id_customer.csv-7" parent="id_customer.csv" value="gender" style="text;fillColor=none;align=left;verticalAlign=top;spacingLeft=4;spacingRight=4;overflow=hidden;rotatable=0;points=[[0,0.5],[1,0.5]];portConstraint=eastwest;strokeColor=#000000;" vertex="1">
			<mxGeometry y="208" width="140" height="26" as="geometry"/>
		</mxCell>
		<mxCell id="id_customer.csv-8" parent="id_customer.csv" value="birth_year" style="text;fillColor=none;align=left;verticalAlign=top;spacingLeft=4;spacingRight=4;overflow=hidden;rotatable=0;points=[[0,0.5],[1,0.5]];portConstraint=eastwest;strokeColor=#000000;" vertex="1">
			<mxGeometry y="234" width="140" height="26" as="geometry"/>
		</mxCell>
		<mxCell parent="1" vertex="1" value="Dates.csv" id="id_Dates.csv" style="swimlane;fontStyle=1;align=center;verticalAlign=top;childLayout=stackLayout;horizontal=1;startSize=26;horizontalStack=0;resizeParent=1;resizeParentMax=0;resizeLast=0;collapsible=1;marginBottom=0;">
			<mxGeometry x="280" y="104" width="140" height="104" as="geometry"/>
		</mxCell>
		<mxCell id="id_Dates.csv-0" parent="id_Dates.csv" value="transaction_date" style="text;fillColor=none;align=left;verticalAlign=top;spacingLeft=4;spacingRight=4;overflow=hidden;rotatable=0;points=[[0,0.5],[1,0.5]];portConstraint=eastwest;strokeColor=#000000;" vertex="1">
			<mxGeometry y="26" width="140" height="26" as="geometry"/>
		</mxCell>
		<mxCell id="id_Dates.csv-1" parent="id_Dates.csv" value="Date_ID" style="text;fillColor=none;align=left;verticalAlign=top;spacingLeft=4;spacingRight=4;overflow=hidden;rotatable=0;points=[[0,0.5],[1,0.5]];portConstraint=eastwest;strokeColor=#000000;" vertex="1">
			<mxGeometry y="52" width="140" height="26" as="geometry"/>
		</mxCell>
		<mxCell id="id_Dates.csv-2" parent="id_Dates.csv" value="Week_ID" style="text;fillColor=none;align=left;verticalAlign=top;spacingLeft=4;spacingRight=4;overflow=hidden;rotatable=0;points=[[0,0.5],[1,0.5]];portConstraint=eastwest;strokeColor=#000000;" vertex="1">
			<mxGeometry y="78" width="140" height="26" as="geometry"/>
		</mxCell>
		<mxCell id="id_Dates.csv-3" parent="id_Dates.csv" value="Week_Desc" style="text;fillColor=none;align=left;verticalAlign=top;spacingLeft=4;spacingRight=4;overflow=hidden;rotatable=0;points=[[0,0.5],[1,0.5]];portConstraint=eastwest;strokeColor=#000000;" vertex="1">
			<mxGeometry y="104" width="140" height="26" as="geometry"/>
		</mxCell>
		<mxCell id="id_Dates.csv-4" parent="id_Dates.csv" value="Month_ID" style="text;fillColor=none;align=left;verticalAlign=top;spacingLeft=4;spacingRight=4;overflow=hidden;rotatable=0;points=[[0,0.5],[1,0.5]];portConstraint=eastwest;strokeColor=#000000;" vertex="1">
			<mxGeometry y="130" width="140" height="26" as="geometry"/>
		</mxCell>
		<mxCell id="id_Dates.csv-5" parent="id_Dates.csv" value="Month_Name" style="text;fillColor=none;align=left;verticalAlign=top;spacingLeft=4;spacingRight=4;overflow=hidden;rotatable=0;points=[[0,0.5],[1,0.5]];portConstraint=eastwest;strokeColor=#000000;" vertex="1">
			<mxGeometry y="156" width="140" height="26" as="geometry"/>
		</mxCell>
		<mxCell id="id_Dates.csv-6" parent="id_Dates.csv" value="Quarter_ID" style="text;fillColor=none;align=left;verticalAlign=top;spacingLeft=4;spacingRight=4;overflow=hidden;rotatable=0;points=[[0,0.5],[1,0.5]];portConstraint=eastwest;strokeColor=#000000;" vertex="1">
			<mxGeometry y="182" width="140" height="26" as="geometry"/>
		</mxCell>
		<mxCell id="id_Dates.csv-7" parent="id_Dates.csv" value="Quarter_Name" style="text;fillColor=none;align=left;verticalAlign=top;spacingLeft=4;spacingRight=4;overflow=hidden;rotatable=0;points=[[0,0.5],[1,0.5]];portConstraint=eastwest;strokeColor=#000000;" vertex="1">
			<mxGeometry y="208" width="140" height="26" as="geometry"/>
		</mxCell>
		<mxCell id="id_Dates.csv-8" parent="id_Dates.csv" value="Year_ID" style="text;fillColor=none;align=left;verticalAlign=top;spacingLeft=4;spacingRight=4;overflow=hidden;rotatable=0;points=[[0,0.5],[1,0.5]];portConstraint=eastwest;strokeColor=#000000;" vertex="1">
			<mxGeometry y="234" width="140" height="26" as="geometry"/>
		</mxCell>
		<mxCell parent="1" vertex="1" value="generations.csv" id="id_generations.csv" style="swimlane;fontStyle=1;align=center;verticalAlign=top;childLayout=stackLayout;horizontal=1;startSize=26;horizontalStack=0;resizeParent=1;resizeParentMax=0;resizeLast=0;collapsible=1;marginBottom=0;">
			<mxGeometry x="420" y="104" width="140" height="104" as="geometry"/>
		</mxCell>
		<mxCell id="id_generations.csv-0" parent="id_generations.csv" value="birth_year" style="text;fillColor=none;align=left;verticalAlign=top;spacingLeft=4;spacingRight=4;overflow=hidden;rotatable=0;points=[[0,0.5],[1,0.5]];portConstraint=eastwest;strokeColor=#000000;" vertex="1">
			<mxGeometry y="26" width="140" height="26" as="geometry"/>
		</mxCell>
		<mxCell id="id_generations.csv-1" parent="id_generations.csv" value="generation" style="text;fillColor=none;align=left;verticalAlign=top;spacingLeft=4;spacingRight=4;overflow=hidden;rotatable=0;points=[[0,0.5],[1,0.5]];portConstraint=eastwest;strokeColor=#000000;" vertex="1">
			<mxGeometry y="52" width="140" height="26" as="geometry"/>
		</mxCell>
		<mxCell parent="1" vertex="1" value="out.csv" id="id_out.csv" style="swimlane;fontStyle=1;align=center;verticalAlign=top;childLayout=stackLayout;horizontal=1;startSize=26;horizontalStack=0;resizeParent=1;resizeParentMax=0;resizeLast=0;collapsible=1;marginBottom=0;">
			<mxGeometry x="560" y="104" width="140" height="104" as="geometry"/>
		</mxCell>
		<mxCell id="id_out.csv-0" parent="id_out.csv" value="transaction_id" style="text;fillColor=none;align=left;verticalAlign=top;spacingLeft=4;spacingRight=4;overflow=hidden;rotatable=0;points=[[0,0.5],[1,0.5]];portConstraint=eastwest;strokeColor=#000000;" vertex="1">
			<mxGeometry y="26" width="140" height="26" as="geometry"/>
		</mxCell>
		<mxCell id="id_out.csv-1" parent="id_out.csv" value="transaction_date" style="text;fillColor=none;align=left;verticalAlign=top;spacingLeft=4;spacingRight=4;overflow=hidden;rotatable=0;points=[[0,0.5],[1,0.5]];portConstraint=eastwest;strokeColor=#000000;" vertex="1">
			<mxGeometry y="52" width="140" height="26" as="geometry"/>
		</mxCell>
		<mxCell id="id_out.csv-2" parent="id_out.csv" value="transaction_time" style="text;fillColor=none;align=left;verticalAlign=top;spacingLeft=4;spacingRight=4;overflow=hidden;rotatable=0;points=[[0,0.5],[1,0.5]];portConstraint=eastwest;strokeColor=#000000;" vertex="1">
			<mxGeometry y="78" width="140" height="26" as="geometry"/>
		</mxCell>
		<mxCell id="id_out.csv-3" parent="id_out.csv" value="sales_outlet_id" style="text;fillColor=none;align=left;verticalAlign=top;spacingLeft=4;spacingRight=4;overflow=hidden;rotatable=0;points=[[0,0.5],[1,0.5]];portConstraint=eastwest;strokeColor=#000000;" vertex="1">
			<mxGeometry y="104" width="140" height="26" as="geometry"/>
		</mxCell>
		<mxCell id="id_out.csv-4" parent="id_out.csv" value="staff_id" style="text;fillColor=none;align=left;verticalAlign=top;spacingLeft=4;spacingRight=4;overflow=hidden;rotatable=0;points=[[0,0.5],[1,0.5]];portConstraint=eastwest;strokeColor=#000000;" vertex="1">
			<mxGeometry y="130" width="140" height="26" as="geometry"/>
		</mxCell>
		<mxCell id="id_out.csv-5" parent="id_out.csv" value="customer_id" style="text;fillColor=none;align=left;verticalAlign=top;spacingLeft=4;spacingRight=4;overflow=hidden;rotatable=0;points=[[0,0.5],[1,0.5]];portConstraint=eastwest;strokeColor=#000000;" vertex="1">
			<mxGeometry y="156" width="140" height="26" as="geometry"/>
		</mxCell>
		<mxCell id="id_out.csv-6" parent="id_out.csv" value="product_id" style="text;fillColor=none;align=left;verticalAlign=top;spacingLeft=4;spacingRight=4;overflow=hidden;rotatable=0;points=[[0,0.5],[1,0.5]];portConstraint=eastwest;strokeColor=#000000;" vertex="1">
			<mxGeometry y="182" width="140" height="26" as="geometry"/>
		</mxCell>
		<mxCell id="id_out.csv-7" parent="id_out.csv" value="quantity" style="text;fillColor=none;align=left;verticalAlign=top;spacingLeft=4;spacingRight=4;overflow=hidden;rotatable=0;points=[[0,0.5],[1,0.5]];portConstraint=eastwest;strokeColor=#000000;" vertex="1">
			<mxGeometry y="208" width="140" height="26" as="geometry"/>
		</mxCell>
		<mxCell id="id_out.csv-8" parent="id_out.csv" value="line_item_amount" style="text;fillColor=none;align=left;verticalAlign=top;spacingLeft=4;spacingRight=4;overflow=hidden;rotatable=0;points=[[0,0.5],[1,0.5]];portConstraint=eastwest;strokeColor=#000000;" vertex="1">
			<mxGeometry y="234" width="140" height="26" as="geometry"/>
		</mxCell>
		<mxCell id="id_out.csv-9" parent="id_out.csv" value="product_group" style="text;fillColor=none;align=left;verticalAlign=top;spacingLeft=4;spacingRight=4;overflow=hidden;rotatable=0;points=[[0,0.5],[1,0.5]];portConstraint=eastwest;strokeColor=#000000;" vertex="1">
			<mxGeometry y="260" width="140" height="26" as="geometry"/>
		</mxCell>
		<mxCell id="id_out.csv-10" parent="id_out.csv" value="product_category" style="text;fillColor=none;align=left;verticalAlign=top;spacingLeft=4;spacingRight=4;overflow=hidden;rotatable=0;points=[[0,0.5],[1,0.5]];portConstraint=eastwest;strokeColor=#000000;" vertex="1">
			<mxGeometry y="286" width="140" height="26" as="geometry"/>
		</mxCell>
		<mxCell id="id_out.csv-11" parent="id_out.csv" value="product_type" style="text;fillColor=none;align=left;verticalAlign=top;spacingLeft=4;spacingRight=4;overflow=hidden;rotatable=0;points=[[0,0.5],[1,0.5]];portConstraint=eastwest;strokeColor=#000000;" vertex="1">
			<mxGeometry y="312" width="140" height="26" as="geometry"/>
		</mxCell>
		<mxCell id="id_out.csv-12" parent="id_out.csv" value="product" style="text;fillColor=none;align=left;verticalAlign=top;spacingLeft=4;spacingRight=4;overflow=hidden;rotatable=0;points=[[0,0.5],[1,0.5]];portConstraint=eastwest;strokeColor=#000000;" vertex="1">
			<mxGeometry y="338" width="140" height="26" as="geometry"/>
		</mxCell>
		<mxCell id="id_out.csv-13" parent="id_out.csv" value="home_store" style="text;fillColor=none;align=left;verticalAlign=top;spacingLeft=4;spacingRight=4;overflow=hidden;rotatable=0;points=[[0,0.5],[1,0.5]];portConstraint=eastwest;strokeColor=#000000;" vertex="1">
			<mxGeometry y="364" width="140" height="26" as="geometry"/>
		</mxCell>
		<mxCell id="id_out.csv-14" parent="id_out.csv" value="customer_first_name" style="text;fillColor=none;align=left;verticalAlign=top;spacingLeft=4;spacingRight=4;overflow=hidden;rotatable=0;points=[[0,0.5],[1,0.5]];portConstraint=eastwest;strokeColor=#000000;" vertex="1">
			<mxGeometry y="390" width="140" height="26" as="geometry"/>
		</mxCell>
		<mxCell id="id_out.csv-15" parent="id_out.csv" value="customer_email" style="text;fillColor=none;align=left;verticalAlign=top;spacingLeft=4;spacingRight=4;overflow=hidden;rotatable=0;points=[[0,0.5],[1,0.5]];portConstraint=eastwest;strokeColor=#000000;" vertex="1">
			<mxGeometry y="416" width="140" height="26" as="geometry"/>
		</mxCell>
		<mxCell id="id_out.csv-16" parent="id_out.csv" value="birth_year" style="text;fillColor=none;align=left;verticalAlign=top;spacingLeft=4;spacingRight=4;overflow=hidden;rotatable=0;points=[[0,0.5],[1,0.5]];portConstraint=eastwest;strokeColor=#000000;" vertex="1">
			<mxGeometry y="442" width="140" height="26" as="geometry"/>
		</mxCell>
		<mxCell id="id_out.csv-17" parent="id_out.csv" value="generation" style="text;fillColor=none;align=left;verticalAlign=top;spacingLeft=4;spacingRight=4;overflow=hidden;rotatable=0;points=[[0,0.5],[1,0.5]];portConstraint=eastwest;strokeColor=#000000;" vertex="1">
			<mxGeometry y="468" width="140" height="26" as="geometry"/>
		</mxCell>
		<mxCell id="id_out.csv-18" parent="id_out.csv" value="sales_outlet_type" style="text;fillColor=none;align=left;verticalAlign=top;spacingLeft=4;spacingRight=4;overflow=hidden;rotatable=0;points=[[0,0.5],[1,0.5]];portConstraint=eastwest;strokeColor=#000000;" vertex="1">
			<mxGeometry y="494" width="140" height="26" as="geometry"/>
		</mxCell>
		<mxCell id="id_out.csv-19" parent="id_out.csv" value="store_square_feet" style="text;fillColor=none;align=left;verticalAlign=top;spacingLeft=4;spacingRight=4;overflow=hidden;rotatable=0;points=[[0,0.5],[1,0.5]];portConstraint=eastwest;strokeColor=#000000;" vertex="1">
			<mxGeometry y="520" width="140" height="26" as="geometry"/>
		</mxCell>
		<mxCell id="id_out.csv-20" parent="id_out.csv" value="store_longitude" style="text;fillColor=none;align=left;verticalAlign=top;spacingLeft=4;spacingRight=4;overflow=hidden;rotatable=0;points=[[0,0.5],[1,0.5]];portConstraint=eastwest;strokeColor=#000000;" vertex="1">
			<mxGeometry y="546" width="140" height="26" as="geometry"/>
		</mxCell>
		<mxCell id="id_out.csv-21" parent="id_out.csv" value="store_latitude" style="text;fillColor=none;align=left;verticalAlign=top;spacingLeft=4;spacingRight=4;overflow=hidden;rotatable=0;points=[[0,0.5],[1,0.5]];portConstraint=eastwest;strokeColor=#000000;" vertex="1">
			<mxGeometry y="572" width="140" height="26" as="geometry"/>
		</mxCell>
		<mxCell id="id_out.csv-22" parent="id_out.csv" value="Neighorhood" style="text;fillColor=none;align=left;verticalAlign=top;spacingLeft=4;spacingRight=4;overflow=hidden;rotatable=0;points=[[0,0.5],[1,0.5]];portConstraint=eastwest;strokeColor=#000000;" vertex="1">
			<mxGeometry y="598" width="140" height="26" as="geometry"/>
		</mxCell>
		<mxCell id="id_out.csv-23" parent="id_out.csv" value="start_of_day" style="text;fillColor=none;align=left;verticalAlign=top;spacingLeft=4;spacingRight=4;overflow=hidden;rotatable=0;points=[[0,0.5],[1,0.5]];portConstraint=eastwest;strokeColor=#000000;" vertex="1">
			<mxGeometry y="624" width="140" height="26" as="geometry"/>
		</mxCell>
		<mxCell id="id_out.csv-24" parent="id_out.csv" value="waste" style="text;fillColor=none;align=left;verticalAlign=top;spacingLeft=4;spacingRight=4;overflow=hidden;rotatable=0;points=[[0,0.5],[1,0.5]];portConstraint=eastwest;strokeColor=#000000;" vertex="1">
			<mxGeometry y="650" width="140" height="26" as="geometry"/>
		</mxCell>
		<mxCell parent="1" vertex="1" value="pastry inventory.csv" id="id_pastry inventory.csv" style="swimlane;fontStyle=1;align=center;verticalAlign=top;childLayout=stackLayout;horizontal=1;startSize=26;horizontalStack=0;resizeParent=1;resizeParentMax=0;resizeLast=0;collapsible=1;marginBottom=0;">
			<mxGeometry x="700" y="104" width="140" height="104" as="geometry"/>
		</mxCell>
		<mxCell id="id_pastry inventory.csv-0" parent="id_pastry inventory.csv" value="sales_outlet_id" style="text;fillColor=none;align=left;verticalAlign=top;spacingLeft=4;spacingRight=4;overflow=hidden;rotatable=0;points=[[0,0.5],[1,0.5]];portConstraint=eastwest;strokeColor=#000000;" vertex="1">
			<mxGeometry y="26" width="140" height="26" as="geometry"/>
		</mxCell>
		<mxCell id="id_pastry inventory.csv-1" parent="id_pastry inventory.csv" value="transaction_date" style="text;fillColor=none;align=left;verticalAlign=top;spacingLeft=4;spacingRight=4;overflow=hidden;rotatable=0;points=[[0,0.5],[1,0.5]];portConstraint=eastwest;strokeColor=#000000;" vertex="1">
			<mxGeometry y="52" width="140" height="26" as="geometry"/>
		</mxCell>
		<mxCell id="id_pastry inventory.csv-2" parent="id_pastry inventory.csv" value="product_id" style="text;fillColor=none;align=left;verticalAlign=top;spacingLeft=4;spacingRight=4;overflow=hidden;rotatable=0;points=[[0,0.5],[1,0.5]];portConstraint=eastwest;strokeColor=#000000;" vertex="1">
			<mxGeometry y="78" width="140" height="26" as="geometry"/>
		</mxCell>
		<mxCell id="id_pastry inventory.csv-3" parent="id_pastry inventory.csv" value="start_of_day" style="text;fillColor=none;align=left;verticalAlign=top;spacingLeft=4;spacingRight=4;overflow=hidden;rotatable=0;points=[[0,0.5],[1,0.5]];portConstraint=eastwest;strokeColor=#000000;" vertex="1">
			<mxGeometry y="104" width="140" height="26" as="geometry"/>
		</mxCell>
		<mxCell id="id_pastry inventory.csv-4" parent="id_pastry inventory.csv" value="quantity_sold" style="text;fillColor=none;align=left;verticalAlign=top;spacingLeft=4;spacingRight=4;overflow=hidden;rotatable=0;points=[[0,0.5],[1,0.5]];portConstraint=eastwest;strokeColor=#000000;" vertex="1">
			<mxGeometry y="130" width="140" height="26" as="geometry"/>
		</mxCell>
		<mxCell id="id_pastry inventory.csv-5" parent="id_pastry inventory.csv" value="waste" style="text;fillColor=none;align=left;verticalAlign=top;spacingLeft=4;spacingRight=4;overflow=hidden;rotatable=0;points=[[0,0.5],[1,0.5]];portConstraint=eastwest;strokeColor=#000000;" vertex="1">
			<mxGeometry y="156" width="140" height="26" as="geometry"/>
		</mxCell>
		<mxCell id="id_pastry inventory.csv-6" parent="id_pastry inventory.csv" value="% waste" style="text;fillColor=none;align=left;verticalAlign=top;spacingLeft=4;spacingRight=4;overflow=hidden;rotatable=0;points=[[0,0.5],[1,0.5]];portConstraint=eastwest;strokeColor=#000000;" vertex="1">
			<mxGeometry y="182" width="140" height="26" as="geometry"/>
		</mxCell>
		<mxCell parent="1" vertex="1" value="product.csv" id="id_product.csv" style="swimlane;fontStyle=1;align=center;verticalAlign=top;childLayout=stackLayout;horizontal=1;startSize=26;horizontalStack=0;resizeParent=1;resizeParentMax=0;resizeLast=0;collapsible=1;marginBottom=0;">
			<mxGeometry x="840" y="104" width="140" height="104" as="geometry"/>
		</mxCell>
		<mxCell id="id_product.csv-0" parent="id_product.csv" value="product_id" style="text;fillColor=none;align=left;verticalAlign=top;spacingLeft=4;spacingRight=4;overflow=hidden;rotatable=0;points=[[0,0.5],[1,0.5]];portConstraint=eastwest;strokeColor=#000000;" vertex="1">
			<mxGeometry y="26" width="140" height="26" as="geometry"/>
		</mxCell>
		<mxCell id="id_product.csv-1" parent="id_product.csv" value="product_group" style="text;fillColor=none;align=left;verticalAlign=top;spacingLeft=4;spacingRight=4;overflow=hidden;rotatable=0;points=[[0,0.5],[1,0.5]];portConstraint=eastwest;strokeColor=#000000;" vertex="1">
			<mxGeometry y="52" width="140" height="26" as="geometry"/>
		</mxCell>
		<mxCell id="id_product.csv-2" parent="id_product.csv" value="product_category" style="text;fillColor=none;align=left;verticalAlign=top;spacingLeft=4;spacingRight=4;overflow=hidden;rotatable=0;points=[[0,0.5],[1,0.5]];portConstraint=eastwest;strokeColor=#000000;" vertex="1">
			<mxGeometry y="78" width="140" height="26" as="geometry"/>
		</mxCell>
		<mxCell id="id_product.csv-3" parent="id_product.csv" value="product_type" style="text;fillColor=none;align=left;verticalAlign=top;spacingLeft=4;spacingRight=4;overflow=hidden;rotatable=0;points=[[0,0.5],[1,0.5]];portConstraint=eastwest;strokeColor=#000000;" vertex="1">
			<mxGeometry y="104" width="140" height="26" as="geometry"/>
		</mxCell>
		<mxCell id="id_product.csv-4" parent="id_product.csv" value="product" style="text;fillColor=none;align=left;verticalAlign=top;spacingLeft=4;spacingRight=4;overflow=hidden;rotatable=0;points=[[0,0.5],[1,0.5]];portConstraint=eastwest;strokeColor=#000000;" vertex="1">
			<mxGeometry y="130" width="140" height="26" as="geometry"/>
		</mxCell>
		<mxCell id="id_product.csv-5" parent="id_product.csv" value="product_description" style="text;fillColor=none;align=left;verticalAlign=top;spacingLeft=4;spacingRight=4;overflow=hidden;rotatable=0;points=[[0,0.5],[1,0.5]];portConstraint=eastwest;strokeColor=#000000;" vertex="1">
			<mxGeometry y="156" width="140" height="26" as="geometry"/>
		</mxCell>
		<mxCell id="id_product.csv-6" parent="id_product.csv" value="unit_of_measure" style="text;fillColor=none;align=left;verticalAlign=top;spacingLeft=4;spacingRight=4;overflow=hidden;rotatable=0;points=[[0,0.5],[1,0.5]];portConstraint=eastwest;strokeColor=#000000;" vertex="1">
			<mxGeometry y="182" width="140" height="26" as="geometry"/>
		</mxCell>
		<mxCell id="id_product.csv-7" parent="id_product.csv" value="current_wholesale_price" style="text;fillColor=none;align=left;verticalAlign=top;spacingLeft=4;spacingRight=4;overflow=hidden;rotatable=0;points=[[0,0.5],[1,0.5]];portConstraint=eastwest;strokeColor=#000000;" vertex="1">
			<mxGeometry y="208" width="140" height="26" as="geometry"/>
		</mxCell>
		<mxCell id="id_product.csv-8" parent="id_product.csv" value="current_retail_price" style="text;fillColor=none;align=left;verticalAlign=top;spacingLeft=4;spacingRight=4;overflow=hidden;rotatable=0;points=[[0,0.5],[1,0.5]];portConstraint=eastwest;strokeColor=#000000;" vertex="1">
			<mxGeometry y="234" width="140" height="26" as="geometry"/>
		</mxCell>
		<mxCell id="id_product.csv-9" parent="id_product.csv" value="tax_exempt_yn" style="text;fillColor=none;align=left;verticalAlign=top;spacingLeft=4;spacingRight=4;overflow=hidden;rotatable=0;points=[[0,0.5],[1,0.5]];portConstraint=eastwest;strokeColor=#000000;" vertex="1">
			<mxGeometry y="260" width="140" height="26" as="geometry"/>
		</mxCell>
		<mxCell id="id_product.csv-10" parent="id_product.csv" value="promo_yn" style="text;fillColor=none;align=left;verticalAlign=top;spacingLeft=4;spacingRight=4;overflow=hidden;rotatable=0;points=[[0,0.5],[1,0.5]];portConstraint=eastwest;strokeColor=#000000;" vertex="1">
			<mxGeometry y="286" width="140" height="26" as="geometry"/>
		</mxCell>
		<mxCell id="id_product.csv-11" parent="id_product.csv" value="new_product_yn" style="text;fillColor=none;align=left;verticalAlign=top;spacingLeft=4;spacingRight=4;overflow=hidden;rotatable=0;points=[[0,0.5],[1,0.5]];portConstraint=eastwest;strokeColor=#000000;" vertex="1">
			<mxGeometry y="312" width="140" height="26" as="geometry"/>
		</mxCell>
		<mxCell parent="1" vertex="1" value="sales targets.csv" id="id_sales targets.csv" style="swimlane;fontStyle=1;align=center;verticalAlign=top;childLayout=stackLayout;horizontal=1;startSize=26;horizontalStack=0;resizeParent=1;resizeParentMax=0;resizeLast=0;collapsible=1;marginBottom=0;">
			<mxGeometry x="980" y="104" width="140" height="104" as="geometry"/>
		</mxCell>
		<mxCell id="id_sales targets.csv-0" parent="id_sales targets.csv" value="sales_outlet_id" style="text;fillColor=none;align=left;verticalAlign=top;spacingLeft=4;spacingRight=4;overflow=hidden;rotatable=0;points=[[0,0.5],[1,0.5]];portConstraint=eastwest;strokeColor=#000000;" vertex="1">
			<mxGeometry y="26" width="140" height="26" as="geometry"/>
		</mxCell>
		<mxCell id="id_sales targets.csv-1" parent="id_sales targets.csv" value="year_month" style="text;fillColor=none;align=left;verticalAlign=top;spacingLeft=4;spacingRight=4;overflow=hidden;rotatable=0;points=[[0,0.5],[1,0.5]];portConstraint=eastwest;strokeColor=#000000;" vertex="1">
			<mxGeometry y="52" width="140" height="26" as="geometry"/>
		</mxCell>
		<mxCell id="id_sales targets.csv-2" parent="id_sales targets.csv" value="beans_goal" style="text;fillColor=none;align=left;verticalAlign=top;spacingLeft=4;spacingRight=4;overflow=hidden;rotatable=0;points=[[0,0.5],[1,0.5]];portConstraint=eastwest;strokeColor=#000000;" vertex="1">
			<mxGeometry y="78" width="140" height="26" as="geometry"/>
		</mxCell>
		<mxCell id="id_sales targets.csv-3" parent="id_sales targets.csv" value="beverage_goal" style="text;fillColor=none;align=left;verticalAlign=top;spacingLeft=4;spacingRight=4;overflow=hidden;rotatable=0;points=[[0,0.5],[1,0.5]];portConstraint=eastwest;strokeColor=#000000;" vertex="1">
			<mxGeometry y="104" width="140" height="26" as="geometry"/>
		</mxCell>
		<mxCell id="id_sales targets.csv-4" parent="id_sales targets.csv" value="food_goal" style="text;fillColor=none;align=left;verticalAlign=top;spacingLeft=4;spacingRight=4;overflow=hidden;rotatable=0;points=[[0,0.5],[1,0.5]];portConstraint=eastwest;strokeColor=#000000;" vertex="1">
			<mxGeometry y="130" width="140" height="26" as="geometry"/>
		</mxCell>
		<mxCell id="id_sales targets.csv-5" parent="id_sales targets.csv" value="merchandise _goal" style="text;fillColor=none;align=left;verticalAlign=top;spacingLeft=4;spacingRight=4;overflow=hidden;rotatable=0;points=[[0,0.5],[1,0.5]];portConstraint=eastwest;strokeColor=#000000;" vertex="1">
			<mxGeometry y="156" width="140" height="26" as="geometry"/>
		</mxCell>
		<mxCell id="id_sales targets.csv-6" parent="id_sales targets.csv" value="total_goal" style="text;fillColor=none;align=left;verticalAlign=top;spacingLeft=4;spacingRight=4;overflow=hidden;rotatable=0;points=[[0,0.5],[1,0.5]];portConstraint=eastwest;strokeColor=#000000;" vertex="1">
			<mxGeometry y="182" width="140" height="26" as="geometry"/>
		</mxCell>
		<mxCell parent="1" vertex="1" value="sales_outlet.csv" id="id_sales_outlet.csv" style="swimlane;fontStyle=1;align=center;verticalAlign=top;childLayout=stackLayout;horizontal=1;startSize=26;horizontalStack=0;resizeParent=1;resizeParentMax=0;resizeLast=0;collapsible=1;marginBottom=0;">
			<mxGeometry x="1120" y="104" width="140" height="104" as="geometry"/>
		</mxCell>
		<mxCell id="id_sales_outlet.csv-0" parent="id_sales_outlet.csv" value="sales_outlet_id" style="text;fillColor=none;align=left;verticalAlign=top;spacingLeft=4;spacingRight=4;overflow=hidden;rotatable=0;points=[[0,0.5],[1,0.5]];portConstraint=eastwest;strokeColor=#000000;" vertex="1">
			<mxGeometry y="26" width="140" height="26" as="geometry"/>
		</mxCell>
		<mxCell id="id_sales_outlet.csv-1" parent="id_sales_outlet.csv" value="sales_outlet_type" style="text;fillColor=none;align=left;verticalAlign=top;spacingLeft=4;spacingRight=4;overflow=hidden;rotatable=0;points=[[0,0.5],[1,0.5]];portConstraint=eastwest;strokeColor=#000000;" vertex="1">
			<mxGeometry y="52" width="140" height="26" as="geometry"/>
		</mxCell>
		<mxCell id="id_sales_outlet.csv-2" parent="id_sales_outlet.csv" value="store_square_feet" style="text;fillColor=none;align=left;verticalAlign=top;spacingLeft=4;spacingRight=4;overflow=hidden;rotatable=0;points=[[0,0.5],[1,0.5]];portConstraint=eastwest;strokeColor=#000000;" vertex="1">
			<mxGeometry y="78" width="140" height="26" as="geometry"/>
		</mxCell>
		<mxCell id="id_sales_outlet.csv-3" parent="id_sales_outlet.csv" value="store_address" style="text;fillColor=none;align=left;verticalAlign=top;spacingLeft=4;spacingRight=4;overflow=hidden;rotatable=0;points=[[0,0.5],[1,0.5]];portConstraint=eastwest;strokeColor=#000000;" vertex="1">
			<mxGeometry y="104" width="140" height="26" as="geometry"/>
		</mxCell>
		<mxCell id="id_sales_outlet.csv-4" parent="id_sales_outlet.csv" value="store_city" style="text;fillColor=none;align=left;verticalAlign=top;spacingLeft=4;spacingRight=4;overflow=hidden;rotatable=0;points=[[0,0.5],[1,0.5]];portConstraint=eastwest;strokeColor=#000000;" vertex="1">
			<mxGeometry y="130" width="140" height="26" as="geometry"/>
		</mxCell>
		<mxCell id="id_sales_outlet.csv-5" parent="id_sales_outlet.csv" value="store_state_province" style="text;fillColor=none;align=left;verticalAlign=top;spacingLeft=4;spacingRight=4;overflow=hidden;rotatable=0;points=[[0,0.5],[1,0.5]];portConstraint=eastwest;strokeColor=#000000;" vertex="1">
			<mxGeometry y="156" width="140" height="26" as="geometry"/>
		</mxCell>
		<mxCell id="id_sales_outlet.csv-6" parent="id_sales_outlet.csv" value="store_telephone" style="text;fillColor=none;align=left;verticalAlign=top;spacingLeft=4;spacingRight=4;overflow=hidden;rotatable=0;points=[[0,0.5],[1,0.5]];portConstraint=eastwest;strokeColor=#000000;" vertex="1">
			<mxGeometry y="182" width="140" height="26" as="geometry"/>
		</mxCell>
		<mxCell id="id_sales_outlet.csv-7" parent="id_sales_outlet.csv" value="store_postal_code" style="text;fillColor=none;align=left;verticalAlign=top;spacingLeft=4;spacingRight=4;overflow=hidden;rotatable=0;points=[[0,0.5],[1,0.5]];portConstraint=eastwest;strokeColor=#000000;" vertex="1">
			<mxGeometry y="208" width="140" height="26" as="geometry"/>
		</mxCell>
		<mxCell id="id_sales_outlet.csv-8" parent="id_sales_outlet.csv" value="store_longitude" style="text;fillColor=none;align=left;verticalAlign=top;spacingLeft=4;spacingRight=4;overflow=hidden;rotatable=0;points=[[0,0.5],[1,0.5]];portConstraint=eastwest;strokeColor=#000000;" vertex="1">
			<mxGeometry y="234" width="140" height="26" as="geometry"/>
		</mxCell>
		<mxCell id="id_sales_outlet.csv-9" parent="id_sales_outlet.csv" value="store_latitude" style="text;fillColor=none;align=left;verticalAlign=top;spacingLeft=4;spacingRight=4;overflow=hidden;rotatable=0;points=[[0,0.5],[1,0.5]];portConstraint=eastwest;strokeColor=#000000;" vertex="1">
			<mxGeometry y="260" width="140" height="26" as="geometry"/>
		</mxCell>
		<mxCell id="id_sales_outlet.csv-10" parent="id_sales_outlet.csv" value="manager" style="text;fillColor=none;align=left;verticalAlign=top;spacingLeft=4;spacingRight=4;overflow=hidden;rotatable=0;points=[[0,0.5],[1,0.5]];portConstraint=eastwest;strokeColor=#000000;" vertex="1">
			<mxGeometry y="286" width="140" height="26" as="geometry"/>
		</mxCell>
		<mxCell id="id_sales_outlet.csv-11" parent="id_sales_outlet.csv" value="Neighorhood" style="text;fillColor=none;align=left;verticalAlign=top;spacingLeft=4;spacingRight=4;overflow=hidden;rotatable=0;points=[[0,0.5],[1,0.5]];portConstraint=eastwest;strokeColor=#000000;" vertex="1">
			<mxGeometry y="312" width="140" height="26" as="geometry"/>
		</mxCell>
		<mxCell parent="1" vertex="1" value="staff.csv" id="id_staff.csv" style="swimlane;fontStyle=1;align=center;verticalAlign=top;childLayout=stackLayout;horizontal=1;startSize=26;horizontalStack=0;resizeParent=1;resizeParentMax=0;resizeLast=0;collapsible=1;marginBottom=0;">
			<mxGeometry x="1260" y="104" width="140" height="104" as="geometry"/>
		</mxCell>
		<mxCell id="id_staff.csv-0" parent="id_staff.csv" value="staff_id" style="text;fillColor=none;align=left;verticalAlign=top;spacingLeft=4;spacingRight=4;overflow=hidden;rotatable=0;points=[[0,0.5],[1,0.5]];portConstraint=eastwest;strokeColor=#000000;" vertex="1">
			<mxGeometry y="26" width="140" height="26" as="geometry"/>
		</mxCell>
		<mxCell id="id_staff.csv-1" parent="id_staff.csv" value="first_name" style="text;fillColor=none;align=left;verticalAlign=top;spacingLeft=4;spacingRight=4;overflow=hidden;rotatable=0;points=[[0,0.5],[1,0.5]];portConstraint=eastwest;strokeColor=#000000;" vertex="1">
			<mxGeometry y="52" width="140" height="26" as="geometry"/>
		</mxCell>
		<mxCell id="id_staff.csv-2" parent="id_staff.csv" value="last_name" style="text;fillColor=none;align=left;verticalAlign=top;spacingLeft=4;spacingRight=4;overflow=hidden;rotatable=0;points=[[0,0.5],[1,0.5]];portConstraint=eastwest;strokeColor=#000000;" vertex="1">
			<mxGeometry y="78" width="140" height="26" as="geometry"/>
		</mxCell>
		<mxCell id="id_staff.csv-3" parent="id_staff.csv" value="position" style="text;fillColor=none;align=left;verticalAlign=top;spacingLeft=4;spacingRight=4;overflow=hidden;rotatable=0;points=[[0,0.5],[1,0.5]];portConstraint=eastwest;strokeColor=#000000;" vertex="1">
			<mxGeometry y="104" width="140" height="26" as="geometry"/>
		</mxCell>
		<mxCell id="id_staff.csv-4" parent="id_staff.csv" value="start_date" style="text;fillColor=none;align=left;verticalAlign=top;spacingLeft=4;spacingRight=4;overflow=hidden;rotatable=0;points=[[0,0.5],[1,0.5]];portConstraint=eastwest;strokeColor=#000000;" vertex="1">
			<mxGeometry y="130" width="140" height="26" as="geometry"/>
		</mxCell>
		<mxCell id="id_staff.csv-5" parent="id_staff.csv" value="location" style="text;fillColor=none;align=left;verticalAlign=top;spacingLeft=4;spacingRight=4;overflow=hidden;rotatable=0;points=[[0,0.5],[1,0.5]];portConstraint=eastwest;strokeColor=#000000;" vertex="1">
			<mxGeometry y="156" width="140" height="26" as="geometry"/>
		</mxCell>
		<mxCell id="id_staff.csv-6" parent="id_staff.csv" value="Unnamed: 6" style="text;fillColor=none;align=left;verticalAlign=top;spacingLeft=4;spacingRight=4;overflow=hidden;rotatable=0;points=[[0,0.5],[1,0.5]];portConstraint=eastwest;strokeColor=#000000;" vertex="1">
			<mxGeometry y="182" width="140" height="26" as="geometry"/>
		</mxCell>
		<mxCell id="id_staff.csv-7" parent="id_staff.csv" value="Unnamed: 7" style="text;fillColor=none;align=left;verticalAlign=top;spacingLeft=4;spacingRight=4;overflow=hidden;rotatable=0;points=[[0,0.5],[1,0.5]];portConstraint=eastwest;strokeColor=#000000;" vertex="1">
			<mxGeometry y="208" width="140" height="26" as="geometry"/>
		</mxCell>
	</root>
</mxGraphModel>
